# xmcd
#
# Track frame offsets:
#	150
#	10882
#	29160
#	38972
#	52772
#	65120
#	79867
#	95192
#	105042
#	118507
#
# Disc length: 1722 seconds
#
# Revision: 1
# Processed by: cddbd v1.5.2PL0 Copyright (c) Steve Scherf et al.
# Submitted via: audiograbber 1.83.01
#
DISCID=7e06b80a
DTITLE=The Carolina Crossmen - The Book, The Blood, And The Blessed Hope
DYEAR=1900
DGENRE=
TTITLE0=Come And Dine
TTITLE1=I Know What God Can Do
TTITLE2=It's Me Oh Lord
TTITLE3=Just As I Am
TTITLE4=The Book, The Blood, And The Blessed Hope
TTITLE5=I Have A Hope
TTITLE6=Thank God For Mom And Daddy
TTITLE7=Walking On Holy Ground
TTITLE8=As Love Takes Wings
TTITLE9=Because He Loved Me On Calvary That Day
EXTD=
EXTT0=
EXTT1=
EXTT2=
EXTT3=
EXTT4=
EXTT5=
EXTT6=
EXTT7=
EXTT8=
EXTT9=
PLAYORDER=
